<svg width="25" height="25" fill="none" xmlns="http://www.w3.org/2000/svg"><path d="M23.987.392L18.171.387C11.637.387 7.414 2.73 7.414 6.355v2.751H1.566c-.505 0-.914.222-.914.495v3.986c0 .274.41.495.914.495h5.848v10.06c0 .272.41.494.915.494h7.63c.505 0 .914-.222.914-.495v-10.06h6.837c.506 0 .915-.22.915-.494l.003-3.986c0-.131-.097-.257-.268-.35a1.396 1.396 0 00-.647-.145h-6.84V6.774c0-1.121.494-1.69 3.195-1.69l3.918-.001c.505 0 .914-.222.914-.495V.887c0-.273-.409-.494-.913-.495z" fill="#2599D3"/></svg>