<svg width="25" height="25" fill="none" xmlns="http://www.w3.org/2000/svg"><path d="M12.124 2.573c3.237 0 3.621.012 4.9.07 3.286.15 4.82 1.709 4.97 4.97.059 1.278.07 1.662.07 4.9 0 3.238-.012 3.62-.07 4.899-.15 3.258-1.68 4.82-4.97 4.97-1.279.058-1.66.07-4.9.07-3.237 0-3.62-.012-4.899-.07-3.294-.151-4.82-1.717-4.97-4.971-.058-1.279-.07-1.661-.07-4.9 0-3.237.013-3.62.07-4.899.15-3.26 1.681-4.82 4.97-4.97 1.28-.057 1.662-.07 4.9-.07zm0-2.186C8.831.387 8.42.401 7.126.46 2.723.662.276 3.105.074 7.512.014 8.806 0 9.22 0 12.512s.014 3.705.073 4.999c.202 4.403 2.645 6.85 7.052 7.052 1.294.058 1.706.073 5 .073 3.292 0 3.705-.015 4.998-.073 4.4-.202 6.853-2.645 7.052-7.052.06-1.294.073-1.707.073-5 0-3.292-.014-3.705-.072-4.998-.198-4.399-2.644-6.85-7.052-7.052-1.294-.06-1.707-.074-5-.074zm0 5.899a6.226 6.226 0 100 12.452 6.226 6.226 0 000-12.452zm0 10.267a4.04 4.04 0 110-8.082 4.04 4.04 0 010 8.082zm6.472-11.968a1.456 1.456 0 100 2.911 1.456 1.456 0 000-2.91z" fill="#2599D3"/></svg>