<svg width="25" height="25" fill="none" xmlns="http://www.w3.org/2000/svg"><path d="M24.26 22.286a4.09 4.09 0 00-.083-.277c-.42-1.328-1.224-2.958-2.411-4.89l-.025-.044-.013-.022-.012-.022h-.013c-.539-.9-.88-1.505-1.023-1.815a2.755 2.755 0 01-.177-1.793c.101-.457.48-1.423 1.137-2.898.345-.782.618-1.409.82-1.881 1.456-3.393 2.088-5.562 1.894-6.506l-.075-.22c-.05-.133-.181-.255-.392-.366-.21-.11-.48-.129-.808-.055l-3.636.044c-.059-.036-.143-.033-.252.011l-.164.067-.064.055-.05.067a.884.884 0 00-.139.232c-.05.11-.092.24-.126.387a51.833 51.833 0 01-1.35 4.979 59.976 59.976 0 01-.86 2.379c-.26.67-.48 1.165-.656 1.482a6.999 6.999 0 01-.48.764c-.143.192-.252.273-.328.243a6.202 6.202 0 01-.215-.089 1.468 1.468 0 01-.284-.542 3.875 3.875 0 01-.145-.863c-.025-.347-.04-.645-.044-.896-.004-.25-.002-.605.006-1.062.01-.458.013-.767.013-.93 0-.56.006-1.169.019-1.825l.031-1.56c.01-.384.013-.79.013-1.217 0-.428-.015-.764-.044-1.007a5.424 5.424 0 00-.132-.708 1.246 1.246 0 00-.26-.531 1.23 1.23 0 00-.422-.3C13.064.502 12.496.406 11.805.39 10.24.36 9.234.538 8.788.922a2.323 2.323 0 00-.48.663c-.151.325-.172.502-.063.531.505.133.863.45 1.073.952l.076.265c.059.192.118.532.177 1.018a17.7 17.7 0 01.113 1.615c.042 1.077.042 2 0 2.766a57.005 57.005 0 01-.12 1.793 5.772 5.772 0 01-.322 1.527.35.35 0 01-.063.11.604.604 0 01-.34.111c-.119 0-.262-.103-.43-.31a4.711 4.711 0 01-.524-.852 13.542 13.542 0 01-.612-1.516 36.173 36.173 0 01-.707-2.301l-.202-.642a77.578 77.578 0 01-.518-1.803 51.052 51.052 0 01-.58-2.29c-.068-.31-.169-.546-.303-.709l-.064-.066a.877.877 0 00-.202-.188.95.95 0 00-.29-.144l-3.46.044c-.353 0-.593.14-.719.42l-.05.133a1.192 1.192 0 00-.038.354c0 .163.025.362.075.598A105.173 105.173 0 001.863 9.02c.593 1.932 1.109 3.489 1.546 4.668.438 1.18.884 2.295 1.339 3.342.454 1.047.755 1.718.902 2.013.148.296.263.517.348.664l.315.531c.202.354.499.778.89 1.273.392.494.825.98 1.3 1.46.476.48 1.03.87 1.661 1.173.631.302 1.246.424 1.843.365h1.452c.295-.044.518-.207.67-.487l.05-.11c.033-.089.065-.225.094-.41a3.8 3.8 0 00.044-.608c-.008-.634.02-1.206.082-1.715.063-.508.135-.892.215-1.15.08-.258.17-.476.271-.653.101-.177.173-.284.216-.32a.73.73 0 01.1-.078c.202-.118.44-.004.714.343.273.347.53.775.77 1.284s.528 1.08.865 1.714c.337.635.631 1.106.883 1.417l.253.265c.168.177.387.34.657.487.268.148.504.184.706.11l3.232-.088c.32 0 .569-.093.745-.277.177-.184.282-.387.316-.608a2.98 2.98 0 00.006-.753 4.84 4.84 0 00-.088-.586z" fill="#2599D3"/></svg>